<svg width="307" height="63" viewBox="0 0 307 63" fill="none" xmlns="http://www.w3.org/2000/svg">
<path d="M0.000366211 32.9287C0.0140157 34.1901 0.502071 35.4473 1.46453 36.4098L26.3389 61.2842C27.5717 62.517 29.2882 62.9715 30.8775 62.6476L45.429 32.9287H0.000366211Z" fill="#08245A"/>
<path d="M0.000293152 32.9287H45.429L30.2336 3.01284C28.9158 2.91849 27.5677 3.34406 26.5227 4.28954L25.9503 4.85302L1.46447 29.3388C0.474343 30.329 -0.0137155 31.631 0.000293152 32.9287Z" fill="#24CAFF"/>
<path d="M59.7485 32.9287C59.7348 34.1901 59.2468 35.4473 58.2843 36.4098L33.4099 61.2842C32.7141 61.98 31.8643 62.4278 30.9702 62.6277L45.429 32.9287H59.7485Z" fill="url(#paint0_linear)"/>
<path fill-rule="evenodd" clip-rule="evenodd" d="M45.429 32.9287H59.7485C59.7478 32.9905 59.746 33.0524 59.7431 33.1141C59.8079 31.7557 59.3216 30.376 58.2843 29.3386L33.4099 4.46436C32.5063 3.56079 31.3429 3.07544 30.16 3.00806C30.1124 3.00537 30.0648 3.00317 30.0172 3.00171C29.9706 3.00049 29.924 3 29.8772 3C29.9559 3 30.0347 3.00195 30.1132 3.00562L30.16 3.00806L30.2336 3.01294L45.429 32.9287Z" fill="url(#paint1_linear)"/>
<path d="M79.4639 47.9121V13.5615H86.0068V16.3447H86.1289C87.9355 14.2451 90.3851 13.1953 93.4775 13.1953C96.7979 13.1953 99.5485 14.3835 101.729 16.7598C103.927 19.1361 105.025 22.1634 105.025 25.8418C105.025 29.5853 103.919 32.6208 101.705 34.9482C99.5078 37.2757 96.6921 38.4395 93.2578 38.4395C90.2793 38.4395 87.903 37.3734 86.1289 35.2412L86.0068 35.29V47.9121H79.4639ZM92.1104 32.5557C93.9495 32.5557 95.4469 31.9372 96.6025 30.7002C97.7744 29.4469 98.3604 27.8438 98.3604 25.8906C98.3604 23.8398 97.7581 22.1878 96.5537 20.9346C95.3493 19.6813 93.8519 19.0547 92.0615 19.0547C90.1898 19.0547 88.6598 19.6976 87.4717 20.9834C86.2998 22.2692 85.7139 23.9049 85.7139 25.8906C85.7139 27.86 86.3242 29.4632 87.5449 30.7002C88.7656 31.9372 90.2874 32.5557 92.1104 32.5557ZM120.431 38.4395C117.045 38.4395 114.254 37.2757 112.057 34.9482C109.876 32.6208 108.785 29.5853 108.785 25.8418C108.785 22.1634 109.876 19.1361 112.057 16.7598C114.254 14.3835 116.996 13.1953 120.284 13.1953C123.295 13.1953 125.696 14.2614 127.486 16.3936L127.584 16.3447V13.5615H134.127V38H127.877V35.0947L127.779 35.0459C126.021 37.3083 123.572 38.4395 120.431 38.4395ZM121.676 32.5557C123.401 32.5557 124.866 31.9372 126.07 30.7002C127.275 29.4469 127.877 27.8438 127.877 25.8906C127.877 23.9212 127.283 22.2936 126.095 21.0078C124.907 19.7057 123.434 19.0547 121.676 19.0547C119.869 19.0547 118.372 19.6813 117.184 20.9346C116.012 22.1715 115.426 23.8236 115.426 25.8906C115.426 27.8438 116.004 29.4469 117.159 30.7002C118.315 31.9372 119.82 32.5557 121.676 32.5557ZM147.896 38.4395C145.732 38.4395 144.031 37.7559 142.794 36.3887C141.573 35.0215 140.963 32.9951 140.963 30.3096V19.0059H138.058V13.5615H140.963V5.60254L147.506 4.89453V13.5615H154.098V19.0059H147.506V29.3574C147.506 30.4479 147.669 31.2454 147.994 31.75C148.32 32.2546 148.857 32.5068 149.605 32.5068C150.566 32.5068 151.599 32.222 152.706 31.6523L154.366 36.9014C153.455 37.4059 152.519 37.7884 151.559 38.0488C150.615 38.3092 149.394 38.4395 147.896 38.4395ZM166.646 38.4395C164.482 38.4395 162.781 37.7559 161.544 36.3887C160.323 35.0215 159.713 32.9951 159.713 30.3096V19.0059H156.808V13.5615H159.713V5.60254L166.256 4.89453V13.5615H172.848V19.0059H166.256V29.3574C166.256 30.4479 166.419 31.2454 166.744 31.75C167.07 32.2546 167.607 32.5068 168.355 32.5068C169.316 32.5068 170.349 32.222 171.456 31.6523L173.116 36.9014C172.205 37.4059 171.269 37.7884 170.309 38.0488C169.365 38.3092 168.144 38.4395 166.646 38.4395ZM199.093 25.5488C199.093 26.3301 199.044 27.1113 198.946 27.8926H181.783C182.19 29.3737 182.955 30.5293 184.078 31.3594C185.217 32.1895 186.609 32.6045 188.253 32.6045C190.727 32.6045 192.704 31.6849 194.186 29.8457L198.434 33.8008C196.057 36.8932 192.509 38.4395 187.789 38.4395C184.013 38.4395 180.937 37.2757 178.561 34.9482C176.184 32.6045 174.996 29.5365 174.996 25.7441C174.996 22.0332 176.152 19.014 178.463 16.6865C180.774 14.359 183.753 13.1953 187.398 13.1953C190.833 13.1953 193.64 14.359 195.821 16.6865C198.002 18.9977 199.093 21.9518 199.093 25.5488ZM187.35 18.9082C185.999 18.9082 184.835 19.2826 183.858 20.0312C182.882 20.7637 182.206 21.8216 181.832 23.2051H192.599C192.257 21.8704 191.638 20.8206 190.743 20.0557C189.864 19.2907 188.733 18.9082 187.35 18.9082ZM204.171 38V13.5615H210.714V17.1016H210.836C211.764 15.8483 212.862 14.888 214.132 14.2207C215.401 13.5371 216.752 13.1953 218.185 13.1953H218.673V20.3486C218.201 20.3161 217.615 20.2998 216.915 20.2998C214.946 20.2998 213.416 20.8857 212.325 22.0576C211.251 23.2295 210.714 24.7757 210.714 26.6963V38H204.171ZM222.774 38V13.5615H229.317V16.7109H229.439C231.441 14.3672 234.037 13.1953 237.228 13.1953C239.994 13.1953 242.159 14.0173 243.722 15.6611C245.284 17.305 246.065 19.9173 246.065 23.498V38H239.522V25.1582C239.522 22.9284 239.14 21.3577 238.375 20.4463C237.61 19.5186 236.43 19.0547 234.835 19.0547C233.142 19.0547 231.799 19.6325 230.807 20.7881C229.814 21.9437 229.317 23.5957 229.317 25.7441V38H222.774ZM255.831 10.2412C254.643 10.2412 253.65 9.85059 252.853 9.06934C252.071 8.28809 251.681 7.3278 251.681 6.18848C251.681 5.08171 252.071 4.14583 252.853 3.38086C253.65 2.59961 254.643 2.20898 255.831 2.20898C257.003 2.20898 257.988 2.59961 258.785 3.38086C259.583 4.14583 259.981 5.08171 259.981 6.18848C259.981 7.31152 259.583 8.27181 258.785 9.06934C257.988 9.85059 257.003 10.2412 255.831 10.2412ZM252.462 38V13.5615H259.029V38H252.462ZM266.695 38V19.0059H264.132V13.5615H266.695V9.41113C266.695 6.59538 267.363 4.44694 268.697 2.96582C270.032 1.4847 271.928 0.744141 274.386 0.744141C276.843 0.744141 278.943 1.34635 280.685 2.55078L279.342 7.65332C277.844 6.9209 276.648 6.55469 275.753 6.55469C274.109 6.55469 273.287 7.65332 273.287 9.85059V13.5615H278.683V19.0059H273.287V38H266.695ZM286.178 47.9121L290.523 36.5107L280.733 13.5615H287.716L293.673 28.5518H293.771L299.337 13.5615H305.978L292.818 47.9121H286.178Z" fill="#1D1E23"/>
<defs>
<linearGradient id="paint0_linear" x1="49.929" y1="34.9287" x2="30.929" y2="63.9287" gradientUnits="userSpaceOnUse">
<stop stop-color="#FFC300"/>
<stop offset="1" stop-color="#FF8A00"/>
</linearGradient>
<linearGradient id="paint1_linear" x1="32.429" y1="3.92871" x2="66.429" y2="37.4287" gradientUnits="userSpaceOnUse">
<stop stop-color="#F3D3DF"/>
<stop offset="1" stop-color="#F3CFD5"/>
</linearGradient>
</defs>
</svg>
